<?xml version="1.0" standalone="no"?>
<!DOCTYPE svg PUBLIC "-//W3C//DTD SVG 1.1//EN" "http://www.w3.org/Graphics/SVG/1.1/DTD/svg11.dtd" >
<svg xmlns="http://www.w3.org/2000/svg">
<metadata>Generated by IcoMoon</metadata>
<defs>
<font id="icomoon" horiz-adv-x="1024">
<font-face units-per-em="1024" ascent="960" descent="-64" />
<missing-glyph horiz-adv-x="1024" />
<glyph unicode="&#x20;" horiz-adv-x="512" d="" />
<glyph unicode="&#xe80e;" glyph-name="icon-basket" horiz-adv-x="952" d="M211.249 401.911c0-32.959 26.816-59.776 59.776-59.776h564.643c32.959 0 59.776 26.925 59.776 59.993v213.244l-684.194 94.238zM354.632 108.894c-32.153 0-58.316-26.141-58.316-58.272 0-32.153 26.163-58.294 58.316-58.294s58.316 26.141 58.316 58.294c0 32.132-26.163 58.272-58.316 58.272zM808.285 108.894c-32.132 0-58.294-26.141-58.294-58.272 0-32.153 26.163-58.294 58.294-58.294 32.153 0 58.316 26.141 58.316 58.294 0 32.132-26.163 58.272-58.316 58.272zM808.046-64.007c-63.065 0-114.366 51.323-114.366 114.41 0 20.39 5.446 40.344 15.728 57.728l0.349 0.566h-257.009l0.349-0.566c10.282-17.166 15.728-37.142 15.728-57.728 0-63.087-51.302-114.41-114.41-114.41-63.043 0-114.366 51.323-114.366 114.41 0 20.564 5.664 40.889 16.338 58.795l0.305 0.479-0.566 0.065c-57.575 7.45-100.969 56.791-100.969 114.824v623.243l-137.959 58.229c-6.906 2.897-12.264 8.322-15.096 15.271-2.832 6.971-2.788 14.617 0.109 21.523 4.379 10.435 14.508 17.166 25.836 17.166 3.79 0 7.472-0.741 10.957-2.222l155.212-65.265 2.984-1.438 2.679-1.83 2.636-2.157 2.745-2.723 2.135-3.485 1.133-1.525 1.46-3.507 1.329-6.513 0.152-103.191 721.837-100.12 4.139-2.004 2.614-1.656 2.788-2.353 2.287-2.571 1.656-2.2 2.135-3.551 2.309-6.601 0.436-3.289-0.131-239.886c0-63.914-51.955-115.891-115.87-115.891h-564.643c-20.913 0-41.368 5.533-59.187 15.968l-0.588 0.349v-77.769c0-32.938 26.816-59.754 59.776-59.754h537.021c63.108 0 114.432-51.323 114.432-114.41s-51.323-114.41-114.432-114.41z" />
<glyph unicode="&#xe900;" glyph-name="ppria" d="M4.382-64h1015.236v1024l-1015.236-1024zM809.266 169.716h-97.876l-48.206 87.648h97.876l48.206 87.648h-97.876l-146.082-252.71-45.288 84.73 149 255.64h188.44l48.206-89.112-96.41-173.828z" />
<glyph unicode="&#xe901;" glyph-name="accessibility" d="M512-58.86l-17.558 25.408c-13.204 19.136-323.776 470.806-323.776 652.116 0 188.202 153.132 341.334 341.334 341.334s341.334-153.132 341.334-341.334c0-181.312-310.572-632.98-323.776-652.116l-17.558-25.408zM512 917.332c-164.692 0-298.666-133.972-298.666-298.666 0-144.788 232.214-502.506 298.666-601.9 66.452 99.392 298.666 457.108 298.666 601.9 0 164.692-133.972 298.668-298.666 298.668zM512 469.334c-82.324 0-149.332 66.988-149.332 149.334s67.008 149.332 149.332 149.332 149.332-66.986 149.332-149.332-67.008-149.332-149.332-149.332zM512 725.332c-58.816 0-106.668-47.85-106.668-106.668s47.85-106.666 106.668-106.666 106.668 47.85 106.668 106.668-47.85 106.668-106.668 106.668z" />
<glyph unicode="&#xe902;" glyph-name="arrow" d="M281.776 961.788l511.714-511.714-51.562-51.56-511.714 511.714 51.56 51.56zM793.734 449.502l-511.714-511.714-51.562 51.562 511.714 511.714 51.562-51.56z" />
<glyph unicode="&#xe903;" glyph-name="calendar" d="M938.688 864h-138.688v64c0 17.696-14.304 32-32 32s-32-14.304-32-32v-64h-192v64c0 17.696-14.336 32-32 32s-32-14.304-32-32v-64h-192v64c0 17.696-14.336 32-32 32s-32-14.304-32-32v-64h-138.656c-47.136 0-85.344-38.176-85.344-85.312v-757.344c0-47.136 38.208-85.344 85.344-85.344h853.344c47.136 0 85.312 38.208 85.312 85.344v757.344c0 47.136-38.176 85.312-85.312 85.312zM960 21.344c0-11.776-9.568-21.344-21.312-21.344h-853.344c-11.776 0-21.344 9.568-21.344 21.344v757.344c0 11.744 9.568 21.312 21.344 21.312h138.656v-64c0-17.696 14.336-32 32-32s32 14.304 32 32v64h192v-64c0-17.696 14.336-32 32-32s32 14.304 32 32v64h192v-64c0-17.696 14.304-32 32-32s32 14.304 32 32v64h138.688c11.744 0 21.312-9.568 21.312-21.312v-757.344zM224 576h128v-96h-128v96zM224 416h128v-96h-128v96zM224 256h128v-96h-128v96zM448 256h128v-96h-128v96zM448 416h128v-96h-128v96zM448 576h128v-96h-128v96zM672 256h128v-96h-128v96zM672 416h128v-96h-128v96zM672 576h128v-96h-128v96z" />
<glyph unicode="&#xe904;" glyph-name="certificate" d="M383.174 282.84v-85.884h554.942c23.124 0 42.942 19.818 42.942 42.942v554.942c0 23.122-19.818 42.942-42.942 42.942h-852.232c-23.124 0-42.942-19.818-42.942-42.942v-554.942c0-23.124 19.818-42.942 42.942-42.942h85.884v85.884c-26.426 26.426-42.942 62.76-42.942 105.702 0 82.582 66.064 148.644 148.644 148.644s148.644-66.064 148.644-148.644c0-39.64-16.516-75.974-42.942-105.702v0 0zM214.71 253.11v-168.466l62.76 66.066 62.762-62.76v168.466c-19.82-9.91-39.64-13.212-62.762-13.212-23.122-3.302-46.246 0-62.76 9.91v0 0zM171.768 154.014h-85.884c-46.244 0-85.884 39.64-85.884 85.884v554.942c0 46.246 39.64 85.884 85.884 85.884h852.232c46.246 0 85.884-39.64 85.884-85.884v-554.942c0-46.246-39.64-85.884-85.884-85.884h-554.942v-171.768l-105.702 105.702-105.704-105.702v171.768zM128.826 666.012v-42.942h769.652v42.942h-769.652zM512 537.188v-42.942h383.174v42.942h-383.174zM640.826 411.664v-42.942h257.652v42.942h-257.652zM277.472 282.84c59.458 0 105.702 46.246 105.702 105.702s-46.246 105.702-105.702 105.702-105.704-46.246-105.704-105.702 46.246-105.702 105.704-105.702v0z" />
<glyph unicode="&#xe905;" glyph-name="facebook" d="M446.44 817.546c32.132 30.596 77.836 40.93 120.95 42.218 45.598 0.41 91.178 0.162 136.776 0.144 0.18-48.102 0.196-96.222-0.018-144.322-29.468 0.052-58.956-0.072-88.424 0.052-18.686 1.164-37.874-13-41.27-31.524-0.448-32.186-0.162-64.39-0.144-96.578 43.22-0.178 86.44 0.054 129.658-0.108-3.164-46.562-8.94-92.912-15.716-139.082-38.176-0.358-76.374 0.036-114.548-0.198-0.34-137.33 0.178-274.66-0.268-411.99-56.704-0.232-113.442 0.108-170.144-0.16-1.074 137.348 0.088 274.766-0.59 412.132-27.664 0.288-55.344-0.198-83.006 0.232 0.106 46.17 0.036 92.338 0.052 138.492 27.644 0.338 55.308-0.072 82.954 0.196 0.84 44.884-0.842 89.82 0.876 134.666 2.772 35.516 16.308 71.298 42.862 95.83z" />
<glyph unicode="&#xe906;" glyph-name="location" d="M335.91 624.090c0-97.616 79.432-177.046 177.046-177.046s177.048 79.432 177.048 177.048-79.432 177.048-177.048 177.048c-97.616 0-177.048-79.432-177.048-177.048v0zM512.956 960c246.908 0 416.298-267.006 286.146-497.644-103.356-183.746-167.476-320.598-232.552-489.032-7.656-21.054-26.796-38.28-53.592-38.28s-45.936 18.182-53.594 38.28c-65.076 168.434-129.196 305.286-232.552 489.032-130.152 230.64 39.238 497.644 286.146 497.644v0z" />
<glyph unicode="&#xe907;" glyph-name="mail" d="M511.318 405.332c-83.328 0-512.64 345.984-512.64 345.984v38.016c0 47.104 38.228 85.332 85.418 85.332h854.442c47.232 0 85.462-38.23 85.462-85.332l-0.682-42.668c0 0-424.662-341.334-512-341.334zM511.318 288c91.35 0 512 330.666 512 330.666l0.682-512c0-47.104-38.23-85.332-85.462-85.332h-854.442c-47.146 0-85.418 38.23-85.418 85.332l0.684 512c-0.044 0 428.63-330.666 511.956-330.666z" />
<glyph unicode="&#xe908;" glyph-name="menu_close" d="M179.2 55.466l725.332 725.332-59.732 59.732-725.332-725.332 59.734-59.732zM119.466 780.8l723.2-723.2 59.732 59.732-723.2 723.2-59.734-59.732z" />
<glyph unicode="&#xe909;" glyph-name="menu" d="M0 106.668h1024v85.332h-1024v-85.332zM0 405.332h1024v85.332h-1024v-85.332zM0 789.332v-85.332h1024v85.332h-1024z" />
<glyph unicode="&#xe90a;" glyph-name="production" d="M514.090 698.776c-67.134 0-130.090-26.122-177.37-73.404s-73.404-110.238-73.404-177.372 26.122-129.828 73.404-177.37c47.282-47.282 110.498-73.404 177.37-73.404 67.134 0 130.090 26.122 177.37 73.404s73.404 110.236 73.404 177.37-26.122 129.828-73.404 177.37c-47.282 47.282-110.236 73.404-177.37 73.404zM514.090 239.020c-115.722 0-208.98 93.78-208.98 208.98s93.258 208.98 208.98 208.98 208.98-93.78 208.98-208.98-93.256-208.98-208.98-208.98zM952.164 552.49h-39.706c-32.392 0-59.558 27.168-59.558 60.604 0 16.718 7.052 31.608 19.592 42.84l25.6 25.078c25.34 25.078 25.34 65.83 0 91.168l-58.254 57.73c-11.494 11.494-28.472 18.286-45.714 18.286s-33.96-6.792-45.714-18.286l-24.554-24.554c-11.754-13.062-27.952-20.114-44.932-20.114-33.438 0-61.91 27.168-61.91 59.298v39.444c0 35.266-27.428 65.568-62.694 65.568h-79.412c-36.048 0-64.784-30.040-64.784-65.568v-39.706c0-32.132-27.69-59.298-61.128-59.298-16.718 0-31.868 7.052-43.362 19.33l-25.338 25.078c-11.494 11.756-28.474 18.286-45.714 18.286s-33.96-6.792-45.714-18.286l-58.252-57.468c-25.078-25.078-25.078-66.090 0-90.906l24.556-24.554c13.062-11.754 20.376-26.644 20.376-43.624 0-33.438-27.168-60.604-59.558-60.604h-39.706c-35.788 0.26-65.828-28.996-65.828-64.522v-79.412c0-35.264 30.040-64.784 65.828-64.784h39.706c32.392 0 59.558-27.168 59.558-60.604 0-16.718-7.314-32.13-20.376-43.886l-24.556-24.034c-25.078-25.078-25.078-65.828 0-90.906l58.252-57.992c11.494-11.754 28.474-18.286 45.714-18.286s33.96 6.792 45.714 18.286l25.338 25.078c10.972 12.278 26.384 19.332 43.102 19.332 33.438 0 61.128-27.168 61.128-59.298v-39.706c0-35.264 28.736-65.568 64.522-65.568h79.412c35.528 0 65.044 30.042 65.044 65.568v39.706c0 32.13 27.428 59.298 60.866 59.298 16.718 0 32.13-7.314 44.148-20.114l24.554-24.554c11.754-11.494 28.472-18.286 45.714-18.286s33.96 6.792 45.714 18.286l58.254 57.992c25.078 25.078 25.078 66.090 0 91.168l-25.6 25.078c-12.538 11.232-19.592 27.168-19.592 43.624 0 33.438 27.168 61.65 59.558 61.65h39.706c35.528 0 60.866 26.906 60.866 62.432v79.936c0 35.526-25.338 64.784-60.866 64.784zM971.754 448v-39.446c0-10.972-6.008-20.638-19.068-20.638h-39.706c-26.906 0-52.506-11.494-71.836-31.346-19.068-19.592-29.518-45.452-29.518-72.62 0-28.212 11.494-54.336 32.654-73.664l24.816-24.554c8.62-8.882 8.62-23.51 0-32.13l-58.254-57.992c-4.18-3.918-10.188-6.27-16.456-6.27s-12.538 2.35-16.456 6.27l-23.77 23.77c-20.114 21.158-46.498 32.914-74.448 32.914-27.168 0-52.246-10.448-71.836-29.256-19.852-19.332-30.302-44.668-30.302-71.836v-39.706c0-12.8-11.232-23.77-23.25-23.77h-79.412c-12.016 0-22.726 10.972-22.726 23.77v39.706c0 26.906-10.71 52.506-30.562 71.836-19.592 18.808-45.192 29.256-72.098 29.256-27.69 0-54.334-11.754-73.404-32.392l-24.294-24.294c-4.18-3.918-10.188-6.27-16.456-6.27s-12.538 2.090-15.936 5.746l-0.522 0.522-58.254 57.992c-8.62 8.62-8.62 22.988 0 31.87l23.772 23.51c21.42 19.852 33.176 46.236 33.176 74.448 0 27.168-10.45 51.984-29.518 71.576-19.33 19.852-44.932 30.042-71.838 30.042h-39.966c-13.060 0-24.034 11.232-24.034 22.988v79.674c0 11.754 10.972 22.988 24.034 22.988h39.706c26.906 0 52.506 10.188 71.838 30.040 19.068 19.592 29.518 44.932 29.518 71.836 0 28.212-11.754 54.596-33.176 74.188l-24.034 23.772c-5.748 5.746-6.532 12.278-6.532 15.934 0 3.396 0.784 10.188 6.532 15.934l57.992 57.73c4.18 3.918 10.188 6.27 16.456 6.27s12.538-2.090 15.936-5.746l25.078-25.078c19.332-20.898 45.454-32.392 73.404-32.392 27.166 0 52.506 10.45 72.098 29.258 19.854 19.332 30.824 44.668 30.824 71.836v39.706c0 12.8 10.45 23.77 22.204 23.77h79.674c11.754 0 20.898-10.972 20.898-23.77v-39.706c0-26.906 11.494-52.506 31.346-71.836 19.592-18.808 45.452-29.258 72.62-29.258 28.212 0 54.856 11.754 74.71 32.914l23.77 23.77c4.18 3.918 10.188 6.27 16.456 6.27s12.538-2.35 16.456-6.008l58.254-57.73c4.18-4.18 6.792-9.926 6.792-15.934s-2.35-11.754-6.53-15.936l-24.816-24.554c-20.898-19.332-32.654-45.452-32.654-73.664 0-27.168 10.448-51.984 29.518-71.576 19.332-19.854 44.932-30.040 71.836-30.040h39.706c14.106 0 19.332-13.060 19.592-23.51v-39.184z" />
<glyph unicode="&#xe90b;" glyph-name="produkty_doplnky" d="M377.6 806.4h264.96v-83.2h89.6v104.96c0 37.12-30.72 67.84-67.84 67.84h-308.48c-37.12 0-67.84-30.72-67.84-67.84v-104.96h89.6v83.2zM929.28 666.88h-838.4c-49.92 0-90.88-40.96-90.88-90.88v-487.68c0-49.92 40.96-90.88 90.88-90.88h839.68c49.92 0 90.88 40.96 90.88 90.88v487.68c-1.28 49.92-42.24 90.88-92.16 90.88zM928 256c-26.88-49.92-79.36-83.2-139.52-83.2s-112.64 33.28-139.52 83.2h-276.48c-26.88-49.92-79.36-83.2-139.52-83.2s-112.64 33.28-139.52 83.2h175.36v153.6h-176.64c26.88 49.92 79.36 83.2 139.52 83.2s112.64-33.28 139.52-83.2h275.2c26.88 49.92 79.36 83.2 139.52 83.2s112.64-33.28 139.52-83.2h-174.080v-153.6h176.64z" />
<glyph unicode="&#xe90c;" glyph-name="produkty_kapaliny" d="M655.82 560.754c-79.39 212.854 11.506 398.094 12.656 399.246-1.15-1.15-218.606-170.284-347.47-421.106-60.98-119.658-85.142-186.39-85.142-315.254 0-149.572 83.99-285.34 281.888-285.34 149.572 0 270.382 120.808 270.382 270.382 0 139.218-85.142 225.51-132.316 352.072zM484.388 17.69c-4.602 2.302-10.356 4.602-17.258 9.204-14.956 9.204-34.516 23.010-54.076 44.872-10.356 10.356-19.56 23.010-28.764 36.818s-17.258 28.764-25.312 46.022c-6.904 16.108-13.808 34.518-18.408 52.926s-8.054 37.97-9.204 56.378c-3.452 37.97 1.152 77.088 10.356 112.754 4.602 17.258 11.506 33.366 18.408 48.324s14.956 28.764 23.012 40.27c16.108 24.162 33.366 41.42 46.022 51.774 6.904 5.754 11.506 9.204 16.108 11.506 3.452 2.3 5.752 3.452 5.752 3.452s0-2.3-1.152-6.904c-1.152-4.602-2.3-10.356-4.602-18.408-4.602-16.108-9.204-37.968-13.808-63.28-2.3-12.656-4.602-26.462-5.752-40.27-2.3-13.808-3.452-28.764-4.602-43.722-2.3-29.914-2.3-60.98 0-90.894 1.152-14.956 3.452-31.066 4.602-46.022 2.3-14.956 4.602-29.914 8.054-44.872s6.904-28.764 10.356-42.572c3.452-13.808 8.054-26.462 12.656-37.97 8.054-24.162 17.258-44.872 23.012-59.828 3.452-8.054 5.752-13.808 8.054-18.408s2.3-6.904 2.3-6.904c1.152 3.452-1.152 4.602-5.752 5.754z" />
<glyph unicode="&#xe90d;" glyph-name="produkty_kosmetika" d="M307.2 361.558v-325.818c0-50.534 41.226-93.092 93.092-93.092h408.27c50.534 0 93.092 42.556 93.092 93.092v325.818h-594.452zM496.042 749.88c-3.99-101.070-14.63-230.068-151.604-335.126h518.65c-136.976 105.060-147.616 234.058-151.606 335.128h134.318v210.118h-567.856v-210.118h83.782l-164.904-207.46 259.324 207.46h39.896zM236.718 936.062h-70.484c-25.268 0-46.546-21.278-46.546-46.544v-67.824c0-26.596 21.278-47.876 46.546-47.876h70.484v162.244zM307.2 388.156v0 0z" />
<glyph unicode="&#xe90e;" glyph-name="produkty_oleje" d="M94.692 482.132c0 0-86.984-150.848-94.692-218.012s41.842-122.218 94.692-122.218c51.75 0 104.602 56.154 94.692 122.22-9.91 69.368-94.692 218.014-94.692 218.014zM67.166 211.27c-1.1-7.708-2.202-15.414-3.302-20.92 0-1.1-1.1-2.202-1.1-3.302s-1.1-2.202-1.1-2.202c0-1.1-1.1-2.202-1.1-2.202s-1.1 0-2.202 1.1c-1.1 0-1.1 1.1-2.202 2.202s-2.202 1.1-3.302 2.202c-4.404 4.404-8.808 9.91-13.214 17.616-2.202 6.606-5.506 16.516-7.708 27.528-1.1 5.504-1.1 11.010-2.202 16.516 0 5.504 0 11.010 0 17.616 0 5.504 1.1 11.010 2.202 17.616 1.1 5.504 2.202 11.010 4.404 16.516 3.302 11.010 6.606 19.818 11.010 27.528 3.302 7.708 7.708 14.314 9.91 18.718 1.1 1.1 1.1 2.202 2.202 3.302 0 1.1 1.1 1.1 1.1 2.202 1.1 1.1 1.1 2.202 1.1 2.202s0-1.1 0-2.202c0-1.1 0-1.1 0-2.202s0-2.202 0-3.302c0-4.404 0-12.112 0-19.818s1.1-17.616 1.1-27.528c0-4.404 1.1-9.91 1.1-15.414s1.1-9.91 1.1-15.414c0-5.504 1.1-9.91 1.1-15.414s1.1-9.91 1.1-14.314c1.1-11.010 1.1-20.92 0-28.628zM656.24 750.796h201.498v-72.672h-201.498v72.672zM937.014 638.486h-364.456c-20.92-39.64-41.842-80.378-62.762-120.016-126.624 30.83-253.248 62.76-379.87 93.59-11.010-20.92-23.124-41.84-34.134-62.76 95.794-90.288 191.588-181.678 287.38-271.966 5.504-5.504 11.012-9.91 15.416-15.414h537.326v92.49c45.144 0 82.582 37.438 82.582 84.784v114.512c1.1 47.346-36.336 84.784-81.48 84.784zM970.048 438.090c0-18.718-15.414-35.234-33.032-35.234s-33.032 16.516-33.032 35.234v115.612c0 18.718 15.414 35.234 33.032 35.234s33.032-16.516 33.032-35.234v-115.612z" />
<glyph unicode="&#xe90f;" glyph-name="produkty_ostatni" d="M378.6 605.538c-36.844 36.844-97.826 36.844-135.94 0l-214.71-214.71c-36.844-36.844-36.844-97.826 0-135.94l290.938-290.938c36.844-36.844 97.826-36.844 135.94 0l214.71 214.71c36.844 36.844 36.844 97.826 0 135.94l-290.938 290.938zM382.412 18.582l-299.832 299.832 62.252 62.254 301.102-301.102-63.524-60.982zM969.37 960l-135.94-13.976-85.122-85.122c8.894-20.328 19.058-40.654 27.95-60.982-8.894-8.894-17.788-17.788-25.408-25.41-20.328 8.894-40.654 19.058-60.982 27.95l-60.982-60.982c8.894-20.328 19.058-40.656 27.95-60.984-8.894-8.894-17.788-17.786-25.408-25.408-20.328 8.894-40.654 19.058-60.982 27.95l-87.664-87.664 177.866-177.866 350.65 350.65 6.352 60.982 7.622 74.958c2.54 34.302-22.868 58.442-55.9 55.9zM668.268 496.278l-29.222 29.222 264.258 264.258 29.222-29.222-264.258-264.258z" />
<glyph unicode="&#xe910;" glyph-name="produkty_prislusenstvi" d="M0 669.404v-712.65h1026.768v712.65h-1026.768zM642.076 279.178l-348.714-185.428 204.8 204.8-102.4 53.968 337.642 181.276-184.044-184.042 92.714-70.572zM408.216 861.75c0 47.048-37.362 84.412-84.412 84.412h-239.396c-47.048 0-84.412-37.362-84.412-84.412v-135.61h408.216v135.61zM304.432 807.784h-77.492v-33.212h-58.118v33.212h-77.492v58.12h77.492v33.212h58.118v-33.212h77.492v-58.12zM942.356 946.162h-240.778c-47.048 0-84.412-37.362-84.412-84.412v-135.61h408.216v135.61c1.384 47.048-37.362 84.412-83.028 84.412zM928.52 807.784h-214.486v58.12h214.486v-58.12z" />
<glyph unicode="&#xe911;" glyph-name="produkty_servisni" d="M840.144 630.692c-13.964 50.036-61.674 107.054-109.382 157.090-109.382 0-109.382 0-219.928 0-47.71-50.036-96.582-107.054-109.382-157.090 182.69 0 256 0 438.69 0zM729.6 960h-217.6v-29.092c24.436 0 44.218-19.782 44.218-44.218s-19.782-44.218-44.218-44.218v-29.090h217.6v146.618zM872.726 546.908v52.364h-503.856v-52.364h32.582v-557.382h-32.582v-52.364h502.69v52.364h-32.582v557.382h33.746zM572.51-10.472h-104.726v557.382h104.726v-557.382zM512 916.946h-333.964v-61.674h333.964c16.292 0 29.092 13.964 29.092 30.256s-12.8 31.418-29.092 31.418z" />
<glyph unicode="&#xe912;" glyph-name="produkty_vse" d="M311.604 446.9c0-51.688-41.902-93.592-93.592-93.592s-93.59 41.902-93.59 93.592c0 51.69 41.902 93.592 93.59 93.592s93.592-41.902 93.592-93.592zM603.39 446.9c0-51.688-41.902-93.592-93.592-93.592s-93.592 41.902-93.592 93.592c0 51.69 41.902 93.592 93.592 93.592s93.592-41.902 93.592-93.592zM895.174 446.9c0-51.688-41.902-93.592-93.592-93.592s-93.592 41.902-93.592 93.592c0 51.69 41.902 93.592 93.592 93.592s93.592-41.902 93.592-93.592z" />
<glyph unicode="&#xe913;" glyph-name="quality" d="M1002.188 588.996h-980.276c-7.944 0-15.164 4.606-18.514 11.814s-2.216 15.706 2.9 21.77l235.104 278.848c3.88 4.606 9.588 7.26 15.612 7.26h510.12c6.024 0 11.732-2.654 15.614-7.26l235.052-278.848c5.116-6.076 6.248-14.57 2.9-21.77s-10.568-11.814-18.514-11.814zM65.852 629.842h892.418l-200.62 238.004h-491.138l-200.66-238.004zM512.052-4.346l-505.762 600.614 31.246 26.304 474.516-563.496 474.514 563.496 31.246-26.304zM512.052 6.948v0c-8.668 0-16.38 5.462-19.258 13.632l-205.204 582.048c-2.258 6.382-1.194 13.448 2.808 18.902l205.204 278.848c7.678 10.456 25.19 10.456 32.89 0l205.246-278.848c4.014-5.442 5.066-12.52 2.808-18.902l-205.246-582.048c-2.87-8.168-10.578-13.632-19.248-13.632zM329.7 606.018l182.34-517.238 182.382 517.238-182.372 247.794-182.352-247.794zM277.122 891.864l49.826-278.84-40.208-7.186-49.826 278.84 40.208 7.186zM747.058 891.876l40.208-7.188-49.856-278.85-40.208 7.19 49.856 278.85z" />
<glyph unicode="&#xe914;" glyph-name="redirect" d="M403.058 244.054l80.498-80.496 284.444 284.444-284.444 284.444-80.498-80.496 147.058-147.058h-550.116v-113.778h550.116l-147.058-147.058zM910.222 960h-796.442c-62.862 0-113.778-50.916-113.778-113.778v-227.556h113.778v227.556h796.442v-796.442h-796.442v227.556h-113.778v-227.556c0-62.864 50.916-113.778 113.778-113.778h796.442c62.864 0 113.778 50.916 113.778 113.778v796.442c0 62.864-50.916 113.778-113.778 113.778z" />
<glyph unicode="&#xe915;" glyph-name="dfparner_logo" horiz-adv-x="6190" d="M970.804 450.85c0-153.884-53.196-279.274-159.584-376.164-100.69-91.192-222.278-138.686-364.764-138.686h-102.59v216.578h87.392c91.19 0 167.184 24.698 226.078 74.092 62.694 53.196 94.99 127.288 94.99 220.378s-32.298 165.284-96.89 220.378c-62.694 51.296-142.486 77.892-239.378 77.892h-70.294v214.678h91.19c151.986 0 279.274-47.496 379.964-142.486 102.59-96.89 153.884-218.48 153.884-366.664zM220.378-64h-220.378v1024h220.378v-1024zM1839.020 745.322h-378.064v214.678h376.164v-214.678zM1839.020 340.66h-378.064v214.678h376.164v-214.678zM1339.368-64h-222.278v1024h220.378v-1024zM3714.138 524.942c9.498 17.098 15.2 32.298 15.2 51.296 0 26.596-9.498 49.394-28.496 66.494s-49.394 26.596-91.19 26.596h-180.482v-188.082h161.484c34.198 0 60.794 3.8 79.792 11.4 18.998 5.7 34.198 17.098 43.696 32.298zM2646.442 659.828c-11.398 3.8-36.096 3.8-68.394 3.8h-146.286v-203.28h146.286c49.394 0 83.592 9.5 102.59 26.596 20.898 18.998 32.298 43.696 32.298 75.994 0 22.798-5.7 43.696-18.998 60.794-13.298 18.998-28.496 30.398-47.494 36.096zM3018.804 671.228c-5.7-36.096-17.098-72.192-30.396-108.288l-62.694-165.284h191.88l-58.894 157.684c-17.098 47.496-30.396 85.492-39.896 115.89zM5853.328 524.942c9.498 17.098 15.198 32.298 15.198 51.296 0 26.596-9.498 49.394-28.498 66.494s-49.396 26.596-91.19 26.596h-180.482v-188.082h161.484c34.198 0 60.794 3.8 79.792 11.4 18.998 5.7 34.198 17.098 43.696 32.298zM2053.7 960v-1024h4135.896v1024h-4135.896zM2576.148 393.856h-144.386v-229.878h-74.092v566.144h212.778c37.996 0 66.494-1.9 87.392-5.7 26.598-3.8 51.296-13.298 68.394-26.596 18.998-13.298 34.198-32.296 45.596-55.094 11.398-24.698 17.098-49.394 17.098-75.994 0-49.394-15.2-89.29-45.596-121.588-32.298-34.198-87.392-51.294-167.184-51.294zM3206.888 163.978l-66.494 170.984h-235.578l-62.694-170.982h-79.792l216.58 566.144h79.792l231.778-566.144h-83.592zM3759.734 163.978l-74.092 117.788c-20.898 34.198-39.896 58.894-55.094 77.892-13.298 17.098-26.598 30.398-37.996 37.996-11.398 5.698-22.798 11.4-34.198 15.198-9.498 1.9-22.798 1.9-41.796 1.9h-87.392v-250.776h-74.092v566.144h250.776c51.296 0 89.292-5.7 113.99-15.2 26.598-9.498 47.494-28.496 62.694-53.194 17.098-26.596 24.698-53.194 24.698-85.492 0-39.896-13.298-74.094-37.996-102.59-26.598-26.596-66.494-43.696-119.688-51.294 18.998-9.5 34.198-18.998 45.596-28.496 20.898-20.898 41.796-45.596 60.794-75.994l98.79-153.884h-94.99zM4316.378 663.63h-186.182v-499.65h-74.092v499.652h-188.082v66.494h448.356v-66.494zM4838.828 163.978h-75.994l-298.27 444.558v-444.558h-72.194v566.144h75.994l296.372-444.558v444.558h72.194v-566.144zM5387.874 163.978h-421.76v566.144h408.46v-66.494h-334.368v-172.884h313.47v-66.494h-313.47v-193.782h347.666v-66.494zM5898.924 163.978l-74.092 117.788c-20.898 34.198-39.896 58.894-55.096 77.892-13.298 17.098-26.596 30.398-37.996 37.996-11.4 5.698-22.798 11.4-34.198 15.198-9.498 1.9-22.798 1.9-41.796 1.9h-87.39v-250.776h-74.092v566.144h250.776c51.296 0 89.292-5.7 113.988-15.2 26.596-9.498 47.494-28.496 64.594-53.194 15.198-26.596 22.798-53.194 22.798-85.492 0-39.896-13.298-74.094-39.896-102.59-26.596-26.596-66.494-43.696-119.688-51.294 18.998-9.5 34.198-18.998 45.596-28.496 20.898-20.898 41.796-45.596 60.794-75.994l98.79-153.884h-93.092zM2925.714 397.654l62.694 165.284c13.298 36.096 24.698 72.192 30.396 108.288 9.498-30.398 22.798-68.394 39.896-115.89l58.894-157.684h-191.88z" />
<glyph unicode="&#xe916;" glyph-name="checkmark" d="M864 832l-480-480-224 224-160-160 384-384 640 640z" />
<glyph unicode="&#xe917;" glyph-name="thumb-up" horiz-adv-x="1008" d="M287.998 556h-216.068c-39.726 0-71.93-32.040-71.93-72.002v-467.992c0-39.768 31.92-72.004 71.93-72.004h701.768c49.87 0 90.304 39.948 90.304 90 0 20.26-6.672 38.96-17.974 54 49.722 0.174 89.972 40.058 89.972 89.996 0 22.89-8.514 43.78-22.596 59.664 34.236 12.716 58.598 45.48 58.598 84.336 0 22.89-8.514 43.78-22.596 59.664 34.236 12.716 58.598 45.48 58.598 84.334 0 49.706-40.156 89.998-90.304 89.998h-215.706c37.774 180.606 19.68 396-125.99 396s-69.612-172.356-126-279.456c-56.388-107.102-162-116.544-162-116.544v0 0zM71.662 520h180.332v-540h-180.332c-19.436 0-35.668 16.236-35.668 36.268v467.462c0 20.108 15.97 36.268 35.668 36.268zM143.994 52c19.882 0 36.002 16.118 36.002 36s-16.118 36-36.002 36c-19.882 0-36.002-16.118-36.002-36s16.118-36 36.002-36v0 0zM658.796 520h259.45c29.852 0 53.752-24.176 53.752-54 0-30.028-24.066-54-53.752-54h-126.25v-36h90.246c29.852 0 53.752-24.174 53.752-54 0-30.028-24.066-54-53.752-54h-126.25v-36h90.246c29.852 0 53.752-24.174 53.752-54 0-30.028-24.066-54-53.752-54h-126.25v-36h53.938c29.898 0 54.062-24.174 54.062-54 0-30.028-24.202-54-54.062-54h-485.94c0 0 0 468 0 540 54 0 101.016 36 101.016 36 32.768 20.458 68.26 51.416 92.344 97.154 56.388 107.102-8.712 262.846 94.642 262.846 106.568 0 124.13-174.7 90.044-360 0 0-7.242-36-7.242-36v0 0z" />
<glyph unicode="&#xe918;" glyph-name="phone" d="M704 320c-64-64-64-128-128-128s-128 64-192 128-128 128-128 192 64 64 128 128-128 256-192 256-192-192-192-192c0-128 131.5-387.5 256-512s384-256 512-256c0 0 192 128 192 192s-192 256-256 192z" />
<glyph unicode="&#xe919;" glyph-name="lupa" d="M1007.732 4.052l-285.816 285.844c57.45 69.088 92.034 157.824 92.034 254.672 0 220.168-178.454 398.624-398.624 398.624-220.128 0.002-398.624-178.454-398.624-398.622 0-220.128 178.496-398.624 398.624-398.624 96.87 0 185.584 34.584 254.672 92.034l285.816-285.844 51.918 51.916zM58.662 544.57c0 196.668 159.974 356.664 356.664 356.664 196.65 0 356.664-159.996 356.664-356.664s-160.014-356.664-356.664-356.664c-196.69 0-356.664 159.994-356.664 356.664z" />
<glyph unicode="&#xe91a;" glyph-name="20" d="M862.72 955.392l-857.6-156.672 156.672-857.6 857.6 156.672-156.672 857.6zM70.656 753.664l747.008 136.704 136.704-747.008-747.52-136.704-136.192 747.008zM233.472 562.688c24.576 12.8 61.952 26.112 97.792 32.768 78.336 14.336 120.832 1.536 134.144-71.68 12.288-66.048-7.168-97.28-115.712-206.336l147.968 27.136 9.216-51.712-229.376-41.984-8.704 48.128c135.168 148.48 142.336 161.28 133.632 207.872-6.144 34.304-24.064 40.96-66.56 33.28-28.16-5.12-63.488-17.408-80.896-27.648l-21.504 50.176zM533.504 465.92c-23.552 128 10.752 168.96 89.088 183.296s124.928-11.776 148.48-139.776c23.552-129.536-9.216-176.128-88.064-190.464-78.336-14.336-125.44 16.896-149.504 146.944zM593.408 476.672c17.408-95.232 33.792-112.128 79.872-103.936 46.592 8.704 55.808 30.208 38.4 125.44-17.408 95.744-32.256 105.984-79.36 97.28-46.080-8.192-56.32-23.040-38.912-118.784z" />
<glyph unicode="&#xe91b;" glyph-name="menu_arrow" horiz-adv-x="588" d="M0.684 56.344l362.936 391.656-362.936 391.704 111.762 120.296 475.43-512-475.428-512-111.762 120.344z" />
<glyph unicode="&#xe91c;" horiz-adv-x="4763" d="M848.064 441.815c0-111.334-38.486-202.051-115.458-272.15-72.848-65.976-160.816-100.338-263.903-100.338h-74.223v156.693h63.227c65.976 0 120.956 17.868 163.565 53.605 45.358 38.486 68.725 92.091 68.725 159.442s-23.366 119.581-70.099 159.442c-45.358 37.111-103.087 56.354-173.187 56.354h-50.856v155.318h67.35c109.96 0 202.051-34.362 274.899-103.087 72.848-70.099 109.96-158.067 109.96-265.278v0zM306.513 69.326h-159.442v740.854h159.442v-740.854zM1476.209 654.862h-272.15v155.318h272.15v-155.318zM1476.209 362.094h-272.15v155.318h272.15v-155.318zM1114.717 69.326h-159.442v740.854h159.442v-740.854z" />
<glyph unicode="&#xe91d;" horiz-adv-x="4763" d="M1632.902 810.18h2992.279v-740.854h-2992.279v740.854z" />
<glyph unicode="&#xe91e;" horiz-adv-x="4763" d="M1851.447 235.64v409.6h155.318c27.49 0 48.107-1.374 63.227-4.123 19.243-2.749 37.111-9.621 49.482-19.243 13.745-9.621 24.741-23.366 32.988-39.86 8.247-17.868 12.37-35.737 12.37-54.98 0-35.737-10.996-64.601-32.988-87.968-21.992-24.741-63.227-37.111-120.956-37.111h-104.462v-166.314h-54.98zM1906.427 450.062h105.836c35.737 0 60.478 6.872 74.223 19.243 15.119 13.745 23.366 31.613 23.366 54.98 0 16.494-4.123 31.613-13.745 43.984-8.247 12.37-20.617 20.617-34.362 24.741-8.247 2.749-26.115 2.749-49.482 2.749h-104.462v-145.697h-1.374zM2145.589 235.64h57.729l45.358 123.705h170.438l48.107-123.705h61.852l-167.689 409.6h-57.729l-158.067-409.6zM2263.796 403.329l45.358 119.581c9.621 26.115 17.868 52.231 21.992 78.346 6.872-21.992 16.494-49.482 28.864-83.844l42.609-114.083h-138.824zM2573.058 235.64v409.6h181.434c37.111 0 64.601-4.123 82.47-10.996 19.243-6.872 34.362-20.617 45.358-38.486 12.37-19.243 17.868-38.486 17.868-61.852 0-28.864-9.621-53.605-27.49-74.223-19.243-19.243-48.107-31.613-86.593-37.111 13.745-6.872 24.741-13.745 32.988-20.617 15.119-15.119 30.239-32.988 43.984-54.98l71.474-111.334h-68.725l-53.605 85.219c-15.119 24.741-28.864 42.609-38.486 56.354-9.621 12.37-19.243 21.992-27.49 27.49-8.247 4.123-16.494 8.247-24.741 10.996-6.872 1.374-16.494 1.374-30.239 1.374h-63.227v-181.434h-54.98zM2628.038 463.807h116.832c24.741 0 43.984 2.749 57.729 8.247 13.745 4.123 24.741 13.745 31.613 24.741 6.872 12.37 10.996 23.366 10.996 37.111 0 19.243-6.872 35.737-20.617 48.107s-35.737 19.243-65.976 19.243h-130.577v-137.45zM3080.247 235.64v360.118h-136.075v48.107h324.381v-48.107h-134.701v-361.493h-53.605v1.374zM3324.907 235.64v409.6h54.98l214.421-321.632v321.632h52.231v-409.6h-54.98l-215.796 321.632v-321.632h-50.856zM3740.005 235.64v409.6h295.517v-48.107h-241.911v-125.079h226.792v-48.107h-226.792v-140.199h251.533v-48.107h-305.138zM4120.741 235.64v409.6h181.434c37.111 0 64.601-4.123 82.47-10.996 19.243-6.872 34.362-20.617 46.733-38.486 10.996-19.243 16.494-38.486 16.494-61.852 0-28.864-9.621-53.605-28.864-74.223-19.243-19.243-48.107-31.613-86.593-37.111 13.745-6.872 24.741-13.745 32.988-20.617 15.119-15.119 30.239-32.988 43.984-54.98l71.474-111.334h-68.725l-53.605 85.219c-15.119 24.741-28.864 42.609-39.86 56.354-9.621 12.37-19.243 21.992-27.49 27.49-8.247 4.123-16.494 8.247-24.741 10.996-6.872 1.374-16.494 1.374-30.239 1.374h-63.227v-181.434h-52.231zM4175.721 463.807h116.832c24.741 0 43.984 2.749 57.729 8.247 13.745 4.123 24.741 13.745 31.613 24.741 6.872 12.37 10.996 23.366 10.996 37.111 0 19.243-6.872 35.737-20.617 48.107s-35.737 19.243-65.976 19.243h-130.577v-137.45z" />
<glyph unicode="&#xe91f;" glyph-name="envelopeDF" horiz-adv-x="1555" d="M58.505 955.255l717.824-409.6 722.261 409.6zM778.377 358.946c-15.019 0-29.013 3.755-42.667 11.264l-735.573 418.475v-852.651h1554.773v852.651l-733.525-418.475c-13.653-7.509-27.989-11.264-43.008-11.264z" />
<glyph unicode="&#xe920;" glyph-name="pinDF" horiz-adv-x="581" d="M137.686 543.481c0-70.573 57.427-128 128-128s128 57.427 128 128c0 70.573-57.427 128-128 128s-128-57.427-128-128v0zM265.686 786.335c178.508 0 300.973-193.038 206.876-359.784-74.724-132.843-121.081-231.784-168.13-353.557-5.535-15.222-19.373-27.676-38.746-27.676s-33.211 13.146-38.746 27.676c-47.049 121.773-93.405 220.714-168.13 353.557-94.097 166.746 28.368 359.784 206.876 359.784v0z" />
<glyph unicode="&#xe921;" glyph-name="phoneDF" d="M590.63 369.37c-101.338-101.338-218.688-198.208-265.062-151.821-66.419 66.406-107.366 124.25-253.76 6.592-146.406-117.709-33.958-196.134 30.374-260.493 74.24-74.227 350.989-3.904 624.538 269.606 273.51 273.574 343.885 550.323 269.594 624.589-64.346 64.346-142.771 176.755-260.429 30.336-117.683-146.355-59.866-187.315 6.566-253.734 46.362-46.387-50.483-163.725-151.821-265.075z" />
</font>
</defs>
</svg>
